<svg xmlns="http://www.w3.org/2000/svg" xmlns:xlink="http://www.w3.org/1999/xlink" width="300" zoomAndPan="magnify" viewBox="0 0 224.87999 60" height="80" preserveAspectRatio="xMidYMid meet" version="1.0"><defs><g/></defs><g fill="#2d6376" fill-opacity="1"><g transform="translate(24.945228, 47.208853)"><g><path d="M 34.789062 -33.121094 L 34.789062 -33.359375 L 23.636719 -33.359375 L 23.636719 -33.121094 C 25.589844 -32.882812 27.257812 -32.359375 27.257812 -30.644531 L 27.257812 -16.871094 L 8.246094 -16.871094 L 8.246094 -30.644531 C 8.246094 -32.359375 9.914062 -32.882812 11.867188 -33.121094 L 11.867188 -33.359375 L 0.714844 -33.359375 L 0.714844 -33.121094 C 2.667969 -32.882812 4.335938 -32.359375 4.335938 -30.644531 L 4.335938 -2.714844 C 4.335938 -1 2.667969 -0.476562 0.714844 -0.238281 L 0.714844 0 L 11.867188 0 L 11.867188 -0.238281 C 9.914062 -0.476562 8.246094 -1 8.246094 -2.714844 L 8.246094 -16.058594 L 27.257812 -16.058594 L 27.257812 -2.714844 C 27.257812 -1 25.589844 -0.476562 23.636719 -0.238281 L 23.636719 0 L 34.789062 0 L 34.789062 -0.238281 C 32.835938 -0.476562 31.167969 -1 31.167969 -2.714844 L 31.167969 -30.644531 C 31.167969 -32.359375 32.835938 -32.882812 34.789062 -33.121094 Z M 34.789062 -33.121094 "/></g></g></g><g fill="#2d6376" fill-opacity="1"><g transform="translate(60.445, 47.208853)"><g><path d="M 31.929688 -6.003906 L 21.875 -31.40625 C 20.875 -33.882812 20.875 -34.171875 20.875 -34.597656 L 17.109375 -31.738281 L 16.441406 -31.214844 L 16.535156 -30.40625 L 5.863281 -5.765625 C 4.097656 -1.667969 2.953125 -0.761719 0.953125 -0.191406 L 0.953125 0 L 9.722656 0 L 9.722656 -0.191406 C 7.054688 -0.761719 5.148438 -1.621094 6.910156 -5.71875 L 7.957031 -8.101562 L 26.832031 -8.101562 L 27.785156 -5.71875 C 29.453125 -1.523438 27.546875 -0.476562 24.210938 -0.191406 L 24.210938 0 L 36.648438 0 L 36.648438 -0.191406 C 34.503906 -0.476562 33.644531 -1.621094 31.929688 -6.003906 Z M 8.292969 -8.960938 L 17.726562 -30.785156 L 26.496094 -8.960938 Z M 8.292969 -8.960938 "/></g></g></g><g fill="#2d6376" fill-opacity="1"><g transform="translate(98.041401, 47.208853)"><g><path d="M 32.359375 -5.289062 L 32.027344 -5.527344 C 29.976562 -3.003906 25.589844 -1.382812 21.96875 -1.382812 C 13.773438 -1.382812 6.480469 -9.246094 6.480469 -19.253906 C 6.480469 -28.164062 12.152344 -33.027344 18.871094 -33.027344 C 26.164062 -33.027344 29.976562 -27.308594 27.355469 -21.207031 L 27.496094 -21.160156 L 33.074219 -29.023438 C 30.882812 -31.691406 27.019531 -34.027344 21.015625 -34.027344 C 11.199219 -34.027344 2.144531 -27.496094 2.144531 -16.726562 C 2.144531 -6.339844 10.484375 0.667969 20.160156 0.667969 C 26.117188 0.667969 30.308594 -2.050781 32.359375 -5.289062 Z M 32.359375 -5.289062 "/></g></g></g><g fill="#2d6376" fill-opacity="1"><g transform="translate(132.540513, 47.208853)"><g><path d="M 28.878906 -8.816406 C 25.257812 -3.765625 23.542969 -0.761719 18.730469 -0.761719 L 8.246094 -0.761719 L 8.246094 -16.296875 L 16.441406 -16.296875 C 21.015625 -16.296875 21.96875 -15.011719 23.113281 -11.960938 L 23.113281 -21.398438 C 21.96875 -18.347656 21.015625 -17.0625 16.441406 -17.0625 L 8.246094 -17.0625 L 8.246094 -32.597656 L 17.394531 -32.597656 C 22.207031 -32.597656 24.210938 -30.214844 27.164062 -26.164062 L 27.355469 -26.257812 L 25.878906 -33.359375 L 0.714844 -33.359375 L 0.714844 -33.121094 C 2.667969 -32.882812 4.335938 -32.359375 4.335938 -30.644531 L 4.335938 -3.667969 C 4.335938 -1.953125 2.667969 -0.953125 0.714844 -0.238281 L 0.714844 0 L 24.925781 0 L 26.542969 1.046875 L 26.832031 0 L 29.070312 -8.722656 Z M 28.878906 -8.816406 "/></g></g></g><g fill="#2d6376" fill-opacity="1"><g transform="translate(162.322199, 47.208853)"><g><path d="M 31.929688 -6.003906 L 21.875 -31.40625 C 20.875 -33.882812 20.875 -34.171875 20.875 -34.597656 L 17.109375 -31.738281 L 16.441406 -31.214844 L 16.535156 -30.40625 L 5.863281 -5.765625 C 4.097656 -1.667969 2.953125 -0.761719 0.953125 -0.191406 L 0.953125 0 L 9.722656 0 L 9.722656 -0.191406 C 7.054688 -0.761719 5.148438 -1.621094 6.910156 -5.71875 L 7.957031 -8.101562 L 26.832031 -8.101562 L 27.785156 -5.71875 C 29.453125 -1.523438 27.546875 -0.476562 24.210938 -0.191406 L 24.210938 0 L 36.648438 0 L 36.648438 -0.191406 C 34.503906 -0.476562 33.644531 -1.621094 31.929688 -6.003906 Z M 8.292969 -8.960938 L 17.726562 -30.785156 L 26.496094 -8.960938 Z M 8.292969 -8.960938 "/></g></g></g></svg>